{
  "accessors": [
    {
      "bufferView": 2,
      "componentType": 5126,
      "count": 65532,
      "max": [
        20.292564392089844,
        26.691814422607422,
        21.016170501708984
      ],
      "min": [
        0.0,
        0.0,
        0.0
      ],
      "type": "VEC3"
    },
    {
      "bufferView": 2,
      "byteOffset": 786384,
      "componentType": 5126,
      "count": 65532,
      "max": [
        0.9999809861183167,
        0.9999993443489075,
        0.9999867677688599
      ],
      "min": [
        -0.9999853372573853,
        -0.9999943375587463,
        -0.9999258518218994
      ],
      "type": "VEC3"
    },
    {
      "bufferView": 3,
      "componentType": 5126,
      "count": 65532,
      "max": [
        0.7529411911964417,
        0.7529411911964417,
        0.7529411911964417,
        1.0
      ],
      "min": [
        0.7529411911964417,
        0.7529411911964417,
        0.7529411911964417,
        1.0
      ],
      "type": "VEC4"
    },
    {
      "bufferView": 1,
      "componentType": 5126,
      "count": 65532,
      "max": [
        0.9987789988517761,
        0.9987660050392151
      ],
      "min": [
        0.0012209999840706587,
        0.0012339999666437507
      ],
      "type": "VEC2"
    },
    {
      "bufferView": 0,
      "componentType": 5125,
      "count": 336819,
      "type": "SCALAR"
    },
    {
      "bufferView": 2,
      "byteOffset": 1572768,
      "componentType": 5126,
      "count": 33050,
      "max": [
        19.226367950439453,
        18.3928279876709,
        21.016170501708984
      ],
      "min": [
        0.6097049713134766,
        0.0,
        4.051985740661621
      ],
      "type": "VEC3"
    },
    {
      "bufferView": 2,
      "byteOffset": 1969368,
      "componentType": 5126,
      "count": 33050,
      "max": [
        0.9999843835830688,
        0.9985177516937256,
        0.9999613761901855
      ],
      "min": [
        -0.9995542168617249,
        -0.9999681115150452,
        -0.9999232292175293
      ],
      "type": "VEC3"
    },
    {
      "bufferView": 3,
      "byteOffset": 1048512,
      "componentType": 5126,
      "count": 33050,
      "max": [
        0.7529411911964417,
        0.7529411911964417,
        0.7529411911964417,
        1.0
      ],
      "min": [
        0.7529411911964417,
        0.7529411911964417,
        0.7529411911964417,
        1.0
      ],
      "type": "VEC4"
    },
    {
      "bufferView": 1,
      "byteOffset": 524256,
      "componentType": 5126,
      "count": 33050,
      "max": [
        0.9987789988517761,
        0.9987660050392151
      ],
      "min": [
        0.0012209999840706587,
        0.0012339999666437507
      ],
      "type": "VEC2"
    },
    {
      "bufferView": 0,
      "byteOffset": 1347276,
      "componentType": 5125,
      "count": 171006,
      "type": "SCALAR"
    }
  ],
  "asset": {
    "extras": {
      "author": "alban (https://sketchfab.com/alban)",
      "license": "CC-BY-4.0 (http://creativecommons.org/licenses/by/4.0/)",
      "source": "https://sketchfab.com/3d-models/chinatown-lion-88ba35b1bab54e749c0308614153aa08",
      "title": "Chinatown lion"
    },
    "generator": "Sketchfab-12.65.0",
    "version": "2.0"
  },
  "bufferViews": [
    {
      "buffer": 0,
      "byteLength": 2031300,
      "name": "floatBufferViews",
      "target": 34963
    },
    {
      "buffer": 0,
      "byteLength": 788656,
      "byteOffset": 2031300,
      "byteStride": 8,
      "name": "floatBufferViews",
      "target": 34962
    },
    {
      "buffer": 0,
      "byteLength": 2365968,
      "byteOffset": 2819956,
      "byteStride": 12,
      "name": "floatBufferViews",
      "target": 34962
    },
    {
      "buffer": 0,
      "byteLength": 1577312,
      "byteOffset": 5185924,
      "byteStride": 16,
      "name": "floatBufferViews",
      "target": 34962
    }
  ],
  "buffers": [
    {
      "byteLength": 6763236,
      "uri": "scene.bin"
    }
  ],
  "images": [
    {
      "uri": "textures/material_0_baseColor.jpeg"
    }
  ],
  "materials": [
    {
      "doubleSided": true,
      "name": "material_0",
      "pbrMetallicRoughness": {
        "baseColorTexture": {
          "index": 0
        },
        "metallicFactor": 0.0,
        "roughnessFactor": 0.6
      }
    }
  ],
  "meshes": [
    {
      "name": "Object_0",
      "primitives": [
        {
          "attributes": {
            "COLOR_0": 2,
            "NORMAL": 1,
            "POSITION": 0,
            "TEXCOORD_0": 3
          },
          "indices": 4,
          "material": 0,
          "mode": 4
        }
      ]
    },
    {
      "name": "Object_1",
      "primitives": [
        {
          "attributes": {
            "COLOR_0": 7,
            "NORMAL": 6,
            "POSITION": 5,
            "TEXCOORD_0": 8
          },
          "indices": 9,
          "material": 0,
          "mode": 4
        }
      ]
    }
  ],
  "nodes": [
    {
      "children": [
        1
      ],
      "matrix": [
        0.9396796822547913,
        -0.3398933708667755,
        -0.038401048630476074,
        0.0,
        -0.3322657346725464,
        -0.8803474903106688,
        -0.33850815892219566,
        0.0,
        0.08125040680170059,
        0.3308485746383669,
        -0.9401795268058776,
        0.0,
        0.510370135307312,
        -0.9709343910217278,
        -3.0607972145080566,
        1.0
      ],
      "name": "Sketchfab_model"
    },
    {
      "children": [
        2
      ],
      "matrix": [
        1.0,
        0.0,
        0.0,
        0.0,
        0.0,
        1.0,
        0.0,
        0.0,
        0.0,
        0.0,
        1.0,
        0.0,
        -8.244216918945313,
        -12.89224624633789,
        -13.522137641906738,
        1.0
      ],
      "name": "mesh.obj.cleaner.materialmerger.gles"
    },
    {
      "children": [
        3,
        4
      ],
      "name": "Object_2"
    },
    {
      "mesh": 0,
      "name": "Object_3"
    },
    {
      "mesh": 1,
      "name": "Object_4"
    }
  ],
  "samplers": [
    {
      "magFilter": 9729,
      "minFilter": 9987,
      "wrapS": 10497,
      "wrapT": 10497
    }
  ],
  "scene": 0,
  "scenes": [
    {
      "name": "Sketchfab_Scene",
      "nodes": [
        0
      ]
    }
  ],
  "textures": [
    {
      "sampler": 0,
      "source": 0
    }
  ]
}
